#!OML:ASF I:\Actors\actors\Patient Classification 2\Patient 1\Session 1\actor1.ASF
:FULLY-SPECIFIED
:DEGREES
419
root -0.434922 18.6216 6.16625 1.30379 -3.21663 -2.33932
lowerback 0.646087 1.76572 0.652575
upperback -3.18011 2.384 0.293078
thorax -3.61622 1.17385 -0.153664
lowerneck -5.11828 -2.95744 -2.3223
upperneck 44.8808 -4.34469 0.474089
head 17.484 -2.14283 -0.021474
rclavicle 2.65626e-014 6.75868e-015
rhumerus -72.1672 36.6602 -109.418
rradius 106.332
rwrist -41.6957
rhand 2.74819 -58.187
rfingers 7.12502
rthumb 28.2199 -86.0823
lclavicle 2.65626e-014 6.75868e-015
lhumerus -63.5354 -31.1691 110.006
lradius 101.968
lwrist 42.5616
lhand 6.90261 -7.29572
lfingers 7.12502
lthumb 32.183 19.8734
rfemur 0 0 0
rtibia 0
rfoot 0 0
rtoes 0
lfemur -1.61398 -7.2597 -13.6042
ltibia 22.3315
lfoot -28.4368 19.2618
ltoes -53.8799
420
root -0.439145 18.6215 6.15263 1.3035 -3.13558 -2.34358
lowerback 0.644584 1.73576 0.603971
upperback -3.20818 2.34442 0.338603
thorax -3.64855 1.15613 -0.0788458
lowerneck -5.17896 -2.95486 -2.46927
upperneck 44.8248 -4.34473 0.568473
head 17.475 -2.15501 0.04798
rclavicle 8.02593e-015 7.35503e-015
rhumerus -72.1089 37.7716 -109.718
rradius 106.501
rwrist -42.3367
rhand 2.30725 -58.6223
rfingers 7.12502
rthumb 27.7984 -86.5864
lclavicle 8.02593e-015 7.35503e-015
lhumerus -63.2054 -33.1214 110.718
lradius 102.035
lwrist 43.9268
lhand 5.29313 -7.48694
lfingers 7.12502
lthumb 30.6495 19.9807
rfemur 0 0 0
rtibia 0
rfoot 0 0
rtoes 0
lfemur -1.67644 -7.30113 -13.5709
ltibia 22.3296
lfoot -28.3764 19.2633
ltoes -54.0749
421
root -0.444307 18.6224 6.13963 1.29864 -3.0169 -2.36145
lowerback 0.678691 1.67569 0.571367
upperback -3.26055 2.26556 0.382761
thorax -3.72552 1.11816 -0.0144586
lowerneck -5.24654 -2.92631 -2.51631
upperneck 44.7954 -4.27953 0.548901
head 17.4738 -2.13821 0.0562638
rclavicle 9.29318e-015 -4.77083e-015
rhumerus -72.0622 39.0013 -110.041
rradius 106.693
rwrist -42.7973
rhand 2.03953 -59.1103
rfingers 7.12502
rthumb 27.5424 -87.1155
lclavicle 9.29318e-015 -4.77083e-015
lhumerus -63.0517 -35.0627 111.432
lradius 102.257
lwrist 44.8567
lhand 3.69041 -7.40834
lfingers 7.12502
lthumb 29.1201 20.3347
rfemur 0 0 0
rtibia 0
rfoot 0 0
rtoes 0
lfemur -1.73217 -7.36045 -13.5118
ltibia 22.3212
lfoot -28.2995 19.2272
ltoes -54.1346
422
root -0.450309 18.6239 6.12683 1.29554 -2.86017 -2.41611
lowerback 0.71609 1.59998 0.588468
upperback -3.30751 2.16687 0.418004
thorax -3.79642 1.06871 0.0140024
lowerneck -5.36785 -2.90174 -2.48783
upperneck 44.795 -4.21856 0.482726
head 17.4996 -2.11605 0.0272422
rclavicle 1.59276e-014 -9.34288e-015
rhumerus -71.9221 40.3775 -110.349
rradius 106.883
rwrist -43.2991
rhand 1.74171 -59.3617
rfingers 7.12502
rthumb 27.2575 -87.4119
lclavicle 1.59276e-014 -9.34288e-015
lhumerus -62.8889 -36.9714 112.03
lradius 102.507
lwrist 45.3453
lhand 2.53875 -7.06432
lfingers 7.12502
lthumb 28.0197 20.8638
rfemur 0 0 0
rtibia 0
rfoot 0 0
rtoes 0
lfemur -1.79785 -7.27896 -13.3691
ltibia 22.3084
lfoot -28.1467 19.0093
ltoes -54.0984
423
root -0.456186 18.6258 6.11669 1.3182 -2.69892 -2.44145
lowerback 0.679167 1.51749 0.569612
upperback -3.34736 2.05687 0.439219
thorax -3.81856 1.01475 0.0511094
lowerneck -5.4865 -2.87802 -2.41924
upperneck 44.7554 -4.15179 0.379291
head 17.4978 -2.09006 -0.0249021
rclavicle 1.77912e-014 4.17448e-015
rhumerus -71.7196 41.8257 -110.627
rradius 107.106
rwrist -43.7196
rhand 1.41475 -59.7991
rfingers 7.12502
rthumb 26.9448 -87.898
lclavicle 1.77912e-014 4.17448e-015
lhumerus -62.7487 -38.8595 112.544
lradius 102.767
lwrist 45.7498
lhand 1.38011 -6.83439
lfingers 7.12502
lthumb 26.9116 21.2697
rfemur 0 0 0
rtibia 0
rfoot 0 0
rtoes 0
lfemur -1.88673 -7.14873 -13.2465
ltibia 22.3004
lfoot -27.9579 18.7476
ltoes -54.1114
424
root -0.462986 18.6286 6.10994 1.36003 -2.52481 -2.42225
lowerback 0.593211 1.42735 0.46385
upperback -3.40905 1.93445 0.472029
thorax -3.83875 0.957583 0.150165
lowerneck -5.56862 -2.83431 -2.39518
upperneck 44.7041 -4.06557 0.327699
head 17.4829 -2.05712 -0.0409864
rclavicle -1.18277e-014 7.95139e-015
rhumerus -71.6457 43.2381 -110.949
rradius 107.397
rwrist -43.7905
rhand 1.03513 -60.3966
rfingers 7.12502
rthumb 26.5815 -88.5511
lclavicle -1.18277e-014 7.95139e-015
lhumerus -62.7209 -40.6076 113.036
lradius 103.039
lwrist 46.0381
lhand 0.141124 -6.86719
lfingers 7.12502
lthumb 25.7255 21.4141
rfemur 0 0 0
rtibia 0
rfoot 0 0
rtoes 0
lfemur -2.00183 -7.08158 -13.1766
ltibia 22.3194
lfoot -27.8361 18.5109
ltoes -54.0951
425
root -0.472463 18.634 6.09608 1.46849 -2.44456 -2.51229
lowerback 0.571934 1.36701 0.395188
upperback -3.51966 1.85604 0.567418
thorax -3.94692 0.922133 0.288599
lowerneck -5.64354 -2.78645 -2.45504
upperneck 44.7056 -3.9827 0.341827
head 17.5039 -2.03082 -0.0124364
rclavicle -2.21645e-014 -8.54774e-015
rhumerus -71.5868 44.6584 -111.23
rradius 107.673
rwrist -43.4742
rhand 0.549638 -60.8642
rfingers 7.12502
rthumb 26.1167 -89.0882
lclavicle -2.21645e-014 -8.54774e-015
lhumerus -62.7319 -42.1462 113.437
lradius 103.36
lwrist 46.1806
lhand -0.717796 -6.82663
lfingers 7.12502
lthumb 24.9027 21.5711
rfemur 0 0 0
rtibia 0
rfoot 0 0
rtoes 0
lfemur -2.22263 -6.99926 -12.9705
ltibia 22.3774
lfoot -27.7483 18.3469
ltoes -54.0777
426
root -0.491207 18.6414 6.07827 1.70072 -2.31119 -2.8324
lowerback 0.504292 1.28608 0.428265
upperback -3.6754 1.75559 0.735983
thorax -4.07461 0.873935 0.447137
lowerneck -5.79209 -2.75555 -2.46996
upperneck 44.7829 -3.91833 0.308977
head 17.5875 -2.01012 -0.0190438
rclavicle 9.92681e-015 3.18055e-015
rhumerus -71.4411 45.9966 -111.401
rradius 107.921
rwrist -42.696
rhand 0.134768 -61.1972
rfingers 7.12502
rthumb 25.7195 -89.4794
lclavicle 9.92681e-015 3.18055e-015
lhumerus -62.699 -43.4584 113.65
lradius 103.715
lwrist 46.1794
lhand -1.17785 -6.52428
lfingers 7.12502
lthumb 24.4617 21.9338
rfemur 0 0 0
rtibia 0
rfoot 0 0
rtoes 0
lfemur -2.60592 -6.80353 -12.4164
ltibia 22.427
lfoot -27.4867 18.1077
ltoes -54.1304
427
root -0.505726 18.6436 6.06782 1.75074 -2.26521 -3.20483
lowerback 0.55016 1.22966 0.61383
upperback -3.78237 1.69274 0.893782
thorax -4.21122 0.839006 0.506043
lowerneck -5.92627 -2.72615 -2.49024
upperneck 44.832 -3.85389 0.273714
head 17.6506 -1.9913 -0.0252527
rclavicle 1.80149e-015 3.77691e-015
rhumerus -71.3569 47.1476 -111.511
rradius 108.197
rwrist -41.5613
rhand -0.169653 -61.3667
rfingers 7.12502
rthumb 25.4279 -89.6907
lclavicle 1.80149e-015 3.77691e-015
lhumerus -62.6973 -44.4512 113.724
lradius 104.014
lwrist 46.0123
lhand -1.32184 -6.24767
lfingers 7.12502
lthumb 24.3237 22.229
rfemur 0 0 0
rtibia 0
rfoot 0 0
rtoes 0
lfemur -2.70615 -6.66004 -11.8844
ltibia 22.4418
lfoot -27.3511 17.9351
ltoes -54.0759
